<svg width="100%" height="100%" id="svg" viewBox="0 0 1440 490" xmlns="http://www.w3.org/2000/svg" class="transition duration-300 ease-in-out delay-150"><path d="M 0,500 L 0,125 C 107.89473684210523,121.56459330143541 215.78947368421046,118.12918660287082 316,137 C 416.21052631578954,155.87081339712918 508.73684210526324,197.04784688995215 602,178 C 695.2631578947368,158.95215311004785 789.2631578947368,79.67942583732057 879,65 C 968.7368421052632,50.32057416267943 1054.2105263157896,100.23444976076556 1147,121 C 1239.7894736842104,141.76555023923444 1339.8947368421052,133.38277511961724 1440,125 L 1440,500 L 0,500 Z" stroke="none" stroke-width="0" fill="#99ffd0" fill-opacity="0.53" class="transition-all duration-300 ease-in-out delay-150 path-0"></path><path d="M 0,500 L 0,291 C 73.70334928229664,276.21531100478467 147.40669856459328,261.4306220095694 239,270 C 330.5933014354067,278.5693779904306 440.07655502392345,310.49282296650716 542,328 C 643.9234449760766,345.50717703349284 738.2870813397129,348.5980861244019 836,337 C 933.7129186602871,325.4019138755981 1034.7751196172248,299.11483253588517 1136,289 C 1237.2248803827752,278.88516746411483 1338.6124401913876,284.9425837320574 1440,291 L 1440,500 L 0,500 Z" stroke="none" stroke-width="0" fill="#99ffd0" fill-opacity="1" class="transition-all duration-300 ease-in-out delay-150 path-1"></path></svg>